# xmcd CD database file
#
# Track frame offsets:
#	150
#	13167
#	26160
#	41892
#	54492
#	69780
#	80472
#	94230
#	105447
#	118027
#	132122
#	145897
#	159902
#	175020
#	188635
#	203682
#	218145
#	232757
#	244050
#	258495
#	272180
#	283675
#	296872
#	311655
#
# Disc length: 4333 seconds
#
# Revision: 0
# Processed by: cddbd v1.5.2PL0 Copyright (c) Steve Scherf et al.
# Submitted via: CDex 1.50
#
DISCID=5810eb18
DTITLE=Count Basie - Blues By Basie - One O'Clock Jump
DYEAR=2001
DGENRE=Jazz
TTITLE0=Tootie
TTITLE1=How Long Blues
TTITLE2=Way Back Blues
TTITLE3=Blues (I Still Think Of Her)
TTITLE4=Harvard Blues
TTITLE5=Bugle Blues
TTITLE6=Take Me Back, Baby
TTITLE7=The Golden Bullet
TTITLE8=Nobody Knows
TTITLE9=Royal Garden Blues
TTITLE10=I'm Going To Move To The Outskirts Of Town
TTITLE11=Bluebeard Blues
TTITLE12=Mutton-Leg
TTITLE13=Beaver Junction
TTITLE14=Patience And Fortitude
TTITLE15=I Ain't Got Nobody (And Nobody Cares For Me)
TTITLE16=I'm Confessin' (That I Love You)
TTITLE17=Little Pony
TTITLE18=Stay Cool
TTITLE19=These Follish Things (Reming Me Of You)
TTITLE20='Ay Now!
TTITLE21=Ain't It The Truth
TTITLE22=Ride On
TTITLE23=One O'Clock Jump
EXTD=YEAR: 2001
EXTT0=
EXTT1=
EXTT2=
EXTT3=
EXTT4=
EXTT5=
EXTT6=
EXTT7=
EXTT8=
EXTT9=
EXTT10=
EXTT11=
EXTT12=
EXTT13=
EXTT14=
EXTT15=
EXTT16=
EXTT17=
EXTT18=
EXTT19=
EXTT20=
EXTT21=
EXTT22=
EXTT23=
PLAYORDER=
